<svg width="181" height="181" viewBox="0 0 181 181" fill="none" xmlns="http://www.w3.org/2000/svg">
<g id="img_networkError">
<g id="Vector" filter="url(#filter0_d_1366_33102)">
<path d="M136.573 113.873C140.747 88.1609 123.287 63.9341 97.5752 59.7605C71.8636 55.587 47.6368 73.047 43.4632 98.7587C39.2896 124.47 56.7497 148.697 82.4613 152.871C108.173 157.044 132.4 139.584 136.573 113.873Z" fill="white"/>
</g>
<path id="Vector_2" d="M90.0145 144.12C110.896 144.12 127.824 127.192 127.824 106.311C127.824 85.4288 110.896 68.5007 90.0145 68.5007C69.1327 68.5007 52.2046 85.4288 52.2046 106.311C52.2046 127.192 69.1327 144.12 90.0145 144.12Z" fill="white"/>
<path id="Vector_3" d="M90.0141 64.4736C66.9098 64.4736 48.1772 83.2062 48.1772 106.31C48.1772 129.415 66.9098 148.147 90.0141 148.147C113.118 148.147 131.851 129.415 131.851 106.31C131.851 83.2062 113.118 64.4736 90.0141 64.4736ZM90.0141 72.1163C97.8017 72.1163 104.978 74.7213 110.725 79.1048L62.8045 127.025C58.421 121.279 55.816 114.098 55.816 106.314C55.816 87.4291 71.1249 72.1202 90.0102 72.1202L90.0141 72.1163ZM90.0141 140.505C82.3675 140.505 75.3046 137.994 69.6089 133.751L117.455 85.9052C121.697 91.601 124.208 98.66 124.208 106.31C124.208 125.196 108.899 140.505 90.0141 140.505Z" fill="#725BFF" stroke="black" stroke-width="1.99877" stroke-linecap="round" stroke-linejoin="round"/>
</g>
<defs>
<filter id="filter0_d_1366_33102" x="39.1002" y="56.1469" width="101.836" height="101.836" filterUnits="userSpaceOnUse" color-interpolation-filters="sRGB">
<feFlood flood-opacity="0" result="BackgroundImageFix"/>
<feColorMatrix in="SourceAlpha" type="matrix" values="0 0 0 0 0 0 0 0 0 0 0 0 0 0 0 0 0 0 127 0" result="hardAlpha"/>
<feOffset dy="0.749287"/>
<feGaussianBlur stdDeviation="1.87322"/>
<feComposite in2="hardAlpha" operator="out"/>
<feColorMatrix type="matrix" values="0 0 0 0 0 0 0 0 0 0 0 0 0 0 0 0 0 0 0.16 0"/>
<feBlend mode="normal" in2="BackgroundImageFix" result="effect1_dropShadow_1366_33102"/>
<feBlend mode="normal" in="SourceGraphic" in2="effect1_dropShadow_1366_33102" result="shape"/>
</filter>
</defs>
</svg>
