<svg width="188" height="172" viewBox="0 0 188 172" fill="none" xmlns="http://www.w3.org/2000/svg">
<g id="ime_congratuation 2" clip-path="url(#clip0_1345_32028)">
<g id="Group">
<g id="Group_2" filter="url(#filter0_d_1345_32028)">
<g id="Group 427320485">
<path id="Vector" d="M131.917 82.1081C128.746 84.0916 125.565 85.032 122.464 84.9021C121.22 84.8528 120.003 84.4453 118.955 83.7249L115.334 81.2339C113.647 80.0745 112.664 78.1578 112.708 76.1079C112.752 74.0564 113.815 72.1841 115.551 71.0984C116.178 70.7061 116.866 70.4347 117.594 70.291C118.416 70.1296 119.213 69.8322 119.785 69.4743C120.201 69.2145 120.488 68.9374 120.664 68.6276C121.161 67.7496 121.876 67.003 122.731 66.4685C124.53 65.3436 126.737 65.2341 128.636 66.1762L134.517 69.0926C136.279 69.9656 137.514 71.6492 137.816 73.5955C138.118 75.5411 137.453 77.5181 136.037 78.8855C135.166 79.7254 133.745 80.9649 131.917 82.1081Z" fill="white"/>
<path id="Vector_2" d="M132.042 59.2716C130.488 60.2438 128.597 60.468 126.854 59.8872C125.115 59.3079 123.739 57.9933 123.078 56.2809L121.252 51.5539C120.784 50.3365 120.667 49.0352 120.911 47.7802C122.247 40.9139 128.348 36.3606 130.909 34.7219L130.964 34.688C132.639 33.6402 134.729 33.4665 136.555 34.2234C138.382 34.9807 139.737 36.584 140.18 38.5116L141.879 45.8909C142.462 48.4376 141.366 51.0742 139.153 52.458L139.153 52.4583C138.671 52.7594 138.15 52.9925 137.604 53.1507C137.332 53.2294 137.077 53.3452 136.82 53.5057C135.913 54.0726 134.996 55.2373 134.364 56.6217C133.863 57.7188 133.06 58.6349 132.042 59.2716Z" fill="white"/>
<path id="Vector_3" d="M155.837 103.25C153.445 104.745 150.29 104.349 148.334 102.307C148.122 102.085 147.329 101.88 146.411 101.929C143.999 102.056 141.76 100.734 140.708 98.5606C139.655 96.385 140.006 93.8074 141.604 91.9935L143.956 89.3178C144.369 88.8457 144.858 88.4296 145.4 88.0907C145.892 87.7829 146.422 87.5427 146.977 87.3771C152.321 85.7903 157.65 88.3436 159.694 89.5148C161.387 90.489 162.499 92.2226 162.677 94.1576C162.856 96.093 162.08 98.0015 160.601 99.2631L156.553 102.723C156.331 102.913 156.089 103.092 155.837 103.25Z" fill="white"/>
<path id="Vector_4" d="M125.529 43.0769C124.541 43.6948 123.453 44.094 122.298 44.2636C117.72 44.935 113.448 41.7563 112.777 37.1781C112.294 33.8815 113.807 30.6102 116.632 28.8435C117.62 28.2256 118.707 27.8264 119.863 27.6568C124.441 26.9854 128.712 30.1641 129.383 34.7423C129.867 38.0386 128.354 41.31 125.529 43.0769Z" fill="white"/>
<path id="Vector_5" d="M168.997 96.705C166.801 98.0779 163.982 97.8955 161.982 96.2509L161.033 95.4711L159.813 95.326C157.623 95.0644 155.757 93.6338 154.937 91.5918C154.117 89.5495 154.476 87.2255 155.874 85.5255L156.653 84.5771L156.799 83.3562C157.015 81.5371 158.029 79.9351 159.583 78.9631C161.778 77.5906 164.596 77.772 166.596 79.4149L167.547 80.1974L168.768 80.3423C170.948 80.5975 172.819 82.0275 173.642 84.0726C174.465 86.1172 174.105 88.4448 172.704 90.1456L171.927 91.0903L171.782 92.3109C171.567 94.13 170.552 95.7327 168.997 96.705Z" fill="white"/>
<path id="Vector_6" d="M130.882 34.2433C128.381 35.8075 125.106 35.5194 122.919 33.5428L121.524 32.2829L119.696 32.7168C117.223 33.304 114.679 32.453 113.058 30.495C111.436 28.5372 111.074 25.8793 112.113 23.5588L112.881 21.8438L111.903 20.2396C110.023 17.1507 110.987 13.0809 114.052 11.1644C115.3 10.3835 116.798 10.04 118.269 10.1974L120.138 10.3971L121.362 8.97109C121.801 8.46004 122.312 8.01977 122.881 7.6637C124.713 6.51852 126.997 6.34124 128.991 7.18971C130.98 8.03633 132.434 9.8057 132.879 11.9233L133.267 13.7615L135.002 14.4848C137.3 15.4434 138.853 17.5805 139.057 20.0619C139.26 22.5433 138.076 24.9039 135.967 26.223L135.754 26.3504L134.124 27.2873L133.972 29.1605C133.803 31.2382 132.648 33.1389 130.882 34.2433Z" fill="white"/>
<path id="Vector_7" d="M153.407 120.861C153.016 121.106 152.594 121.308 152.151 121.462C151.019 121.858 149.884 122.246 148.747 122.629L148.217 122.808C145.765 123.634 143.23 124.488 140.701 125.288C137.462 126.312 134.151 126.878 130.859 126.971C129.686 127.003 128.131 127.007 126.493 126.738C124.629 126.431 123.011 125.778 121.712 125.254C120.563 124.79 119.05 124.125 117.531 123.096C117.13 122.824 116.768 122.55 116.457 122.304C115.012 124.852 113.023 126.948 110.517 128.515C107.39 130.47 103.697 131.355 99.7853 131.093L34.8729 143.799C33.595 144.05 32.3434 144.161 31.1525 144.13C30.5814 144.116 30.0374 144.071 29.5341 143.996C22.932 143.022 19.4714 137.893 18.9165 137.002C18.3586 136.113 15.2615 130.756 17.2753 124.394C17.4299 123.907 17.628 123.397 17.8645 122.878C18.3572 121.796 19.0055 120.719 19.7902 119.68L59.6295 66.8798C61.1067 63.2486 63.5179 60.3156 66.6454 58.3598C71.6848 55.2084 77.7314 54.8711 84.1439 57.2814C83.8793 56.9649 83.6283 56.6355 83.3904 56.2924C82.9607 55.6729 82.5771 55.0407 82.2487 54.4117C81.1882 52.3808 80.6613 50.308 80.6813 48.2495C80.7167 44.7161 82.4322 41.9575 83.9225 39.9489C84.0753 39.7427 84.2313 39.5424 84.3908 39.3442C85.437 38.043 86.5369 37.0412 87.7544 36.2798C88.0544 36.0921 88.3647 35.9181 88.6767 35.7619C91.4453 34.3763 94.2019 34.4522 96.5331 34.7091C98.5705 34.9336 100.527 35.3383 102.355 35.7345C103.741 36.0338 105.17 36.4135 106.723 36.894C107.547 37.1496 108.427 37.4383 109.413 37.7774C109.894 37.9426 110.374 38.1112 110.853 38.2818L110.947 38.3097C112.464 38.7547 115.619 39.6809 116.244 43.2554C116.244 43.2554 117.306 49.2546 117.316 49.3112C117.749 51.7478 116.671 54.1748 114.568 55.4896C112.882 56.5441 110.785 56.7016 108.959 55.9103C108.74 55.8154 108.522 55.7217 108.306 55.6299C109.77 57.9894 110.753 61.0203 109.85 64.4148C109.799 64.6036 109.743 64.7904 109.685 64.9774L109.649 65.0943C109.621 65.1891 109.588 65.2926 109.555 65.3953C109.406 65.8706 109.191 66.5357 108.897 67.235C108.187 68.9289 107.282 70.3112 106.573 71.3266C106.038 72.0928 105.433 72.9594 104.684 73.828C106.321 75.9215 107.874 78.1398 109.327 80.4633C110.687 82.6374 111.924 84.8461 113.03 87.0729C114.422 86.3088 115.82 85.8531 117.281 85.6863C119.042 85.4857 120.856 85.7023 122.829 86.3472C123.063 86.4234 123.308 86.5079 123.549 86.5973C125.897 87.4664 128.84 88.8401 130.8 91.7806C131.94 93.4918 132.631 95.5162 132.852 97.7972C132.921 98.5107 132.945 99.2514 132.923 100.001C132.851 102.457 132.149 104.764 130.777 107.053C130.169 108.068 129.508 108.973 128.925 109.771C128.498 110.356 128.095 110.907 127.771 111.421C127.668 111.584 127.573 111.742 127.485 111.894C131.978 111.557 136.767 109.533 141.411 107.569C142.025 107.31 142.635 107.051 143.242 106.799C145.2 105.984 147.463 106.27 149.152 107.543L153.776 111.023C155.383 112.232 156.293 114.125 156.208 116.087C156.125 118.031 155.077 119.817 153.407 120.861ZM94.4413 63.2881C94.3925 63.2635 94.3442 63.2387 94.2938 63.2141C94.3323 63.2445 94.3704 63.2752 94.4088 63.3056C94.4197 63.2999 94.431 63.2939 94.4413 63.2881Z" fill="white"/>
</g>
</g>
<path id="Vector_8" d="M118.688 75.839C120.395 75.5036 123.854 74.4663 125.583 71.4161C125.692 71.2243 125.926 71.1442 126.123 71.2424L132.005 74.1588C132.257 74.284 132.312 74.6211 132.109 74.8169C130.869 76.0131 126.942 79.4296 122.701 79.2518C122.507 79.2437 122.319 79.1754 122.159 79.065L118.54 76.5753C118.242 76.3703 118.334 75.9083 118.688 75.839Z" fill="#44C1F3" stroke="#212121" stroke-width="1.88508" stroke-miterlimit="10" stroke-linecap="round" stroke-linejoin="round"/>
<path id="Vector_9" d="M129.219 54.2744C130.052 52.4484 132.143 48.8435 136.028 47.7192C136.273 47.6486 136.425 47.4078 136.368 47.1598L134.669 39.7784C134.596 39.4616 134.232 39.31 133.958 39.4853C132.284 40.5568 127.399 44.0496 126.463 48.8575C126.42 49.0777 126.447 49.3066 126.528 49.5157L128.354 54.2438C128.504 54.632 129.047 54.6529 129.219 54.2744Z" fill="#FDD931" stroke="#212121" stroke-width="1.88508" stroke-miterlimit="10" stroke-linecap="round" stroke-linejoin="round"/>
<path id="Vector_10" d="M146.11 96.2814C147.52 96.2064 150.451 96.3367 152.418 98.3954C152.541 98.5248 152.741 98.5414 152.878 98.4251L156.93 94.961C157.104 94.8123 157.08 94.536 156.882 94.4222C155.668 93.7262 151.898 91.8155 148.593 92.7972C148.442 92.8423 148.307 92.9335 148.203 93.0521L145.848 95.7312C145.654 95.9513 145.818 96.2968 146.11 96.2814Z" fill="#55E99F" stroke="#212121" stroke-width="1.88508" stroke-miterlimit="10" stroke-linecap="round" stroke-linejoin="round"/>
<path id="Vector_11" d="M122.532 38.2805C123.814 37.479 124.203 35.7902 123.402 34.5085C122.6 33.2268 120.911 32.8376 119.63 33.6391C118.348 34.4406 117.959 36.1294 118.76 37.411C119.562 38.6927 121.25 39.082 122.532 38.2805Z" fill="#44C1F3" stroke="#212121" stroke-width="1.88508" stroke-miterlimit="10" stroke-linecap="round" stroke-linejoin="round"/>
<path id="Vector_12" d="M163.007 83.7852L165.154 85.5498C165.208 85.594 165.273 85.6221 165.342 85.6301L168.101 85.9577C168.387 85.9914 168.523 86.328 168.34 86.5502L166.575 88.697C166.531 88.7508 166.503 88.8161 166.495 88.8851L166.167 91.6445C166.133 91.9302 165.797 92.0656 165.575 91.8828L163.428 90.1182C163.374 90.074 163.309 90.0459 163.24 90.0379L160.48 89.7103C160.195 89.6766 160.059 89.34 160.242 89.1178L162.007 86.971C162.051 86.9172 162.079 86.8519 162.087 86.7829L162.415 84.0235C162.449 83.7376 162.785 83.6024 163.007 83.7852Z" fill="#FDD931" stroke="#212121" stroke-width="1.88508" stroke-miterlimit="10" stroke-linecap="round" stroke-linejoin="round"/>
<path id="Vector_13" d="M127.345 13.0885L128.239 17.3355C128.305 17.6493 128.521 17.9104 128.817 18.0338L132.823 19.7047C133.568 20.0156 133.634 21.046 132.934 21.4482L129.171 23.6115C128.893 23.7715 128.712 24.0579 128.686 24.3775L128.335 28.7036C128.269 29.5082 127.309 29.8889 126.71 29.3476L123.49 26.4376C123.253 26.2228 122.924 26.1385 122.612 26.2126L118.389 27.2155C117.603 27.402 116.945 26.6066 117.274 25.8697L119.047 21.9082C119.178 21.6156 119.156 21.2772 118.99 21.0035L116.731 17.2973C116.311 16.6079 116.864 15.736 117.667 15.8219L121.982 16.2835C122.301 16.3176 122.616 16.1927 122.825 15.9494L125.652 12.6559C126.178 12.042 127.178 12.2986 127.345 13.0885Z" fill="#55E99F" stroke="#212121" stroke-width="1.88508" stroke-miterlimit="10" stroke-linecap="round" stroke-linejoin="round"/>
<g id="Group_3">
<path id="Vector_14" d="M51.733 100.905C51.3605 95.6715 51.6081 90.6092 52.3837 85.8738L44.9047 95.7856L34.81 109.165L32.2644 112.538C34.1889 122.222 38.21 130.549 43.4894 136.35L50.9031 134.899L63.3003 132.472C57.0245 124.836 52.6384 113.631 51.733 100.905Z" fill="white" stroke="#212121" stroke-width="1.88508" stroke-miterlimit="10" stroke-linecap="round" stroke-linejoin="round"/>
<path id="Vector_15" d="M32.2642 112.539L24.3047 123.087C23.8005 123.756 23.3557 124.467 23.0102 125.226C22.8817 125.507 22.7611 125.806 22.6675 126.103C21.3304 130.325 23.7115 134.005 23.7115 134.005C23.7115 134.005 25.9772 137.756 30.3591 138.402C30.6667 138.448 30.9885 138.47 31.2975 138.478C32.1307 138.499 32.9654 138.411 33.7869 138.25L43.4885 136.351C38.2098 130.55 34.1887 122.223 32.2642 112.539Z" fill="#725BFF" stroke="#212121" stroke-width="1.88508" stroke-miterlimit="10" stroke-linecap="round" stroke-linejoin="round"/>
<path id="Vector_16" d="M72.3946 99.4348C71.38 85.1741 74.9573 72.1795 81.3294 63.6335C77.9095 62.4871 74.0198 62.0854 70.9163 63.5488C69.148 64.3822 67.6299 65.6673 66.4561 67.2228L63.6799 70.9021L54.553 82.9979L52.3834 85.8737C51.6078 90.6092 51.3604 95.6719 51.7327 100.905C52.6385 113.631 57.0246 124.836 63.2994 132.472L67.3502 131.679L82.2461 128.763C76.8939 121.252 73.2152 110.968 72.3946 99.4348Z" fill="#725BFF" stroke="#212121" stroke-width="1.88508" stroke-miterlimit="10" stroke-linecap="round" stroke-linejoin="round"/>
<path id="Vector_17" d="M93.0561 97.9651C93.7967 108.373 96.8678 117.761 101.393 125.016L102.466 124.806C104.378 124.431 106.198 123.629 107.722 122.404C111.654 119.242 112.71 112.785 112.328 108.187C111.616 99.6138 108.001 91.2313 103.719 83.9714C101.438 80.5259 98.8413 77.1082 95.9185 73.9996C93.5273 81.0355 92.4372 89.2649 93.0561 97.9651Z" fill="#725BFF" stroke="#212121" stroke-width="1.88508" stroke-miterlimit="10" stroke-linecap="round" stroke-linejoin="round"/>
<path id="Vector_18" d="M81.329 63.6339C74.9571 72.1803 71.3795 85.1746 72.3941 99.4353C73.2147 110.968 76.8935 121.252 82.2457 128.764L83.0712 128.602L97.9418 125.691L101.392 125.016C96.8671 117.761 93.796 108.373 93.0553 97.9648C92.4364 89.2646 93.5266 81.0352 95.9174 73.9995C92.8781 70.7676 89.4844 67.8696 85.7139 65.6302C84.4453 64.8761 82.9387 64.1735 81.329 63.6339Z" fill="white" stroke="#212121" stroke-width="1.88508" stroke-miterlimit="10" stroke-linecap="round" stroke-linejoin="round"/>
</g>
<g id="Group_4">
<path id="Vector_19" d="M107.018 122.92C102.498 125.747 96.336 124.872 89.6683 120.454C83.8662 116.61 78.0986 110.38 73.4284 102.912C68.7583 95.4442 65.6816 87.5316 64.7656 80.6324C63.7126 72.7038 65.6224 66.7805 70.1427 63.9537C74.6631 61.1269 80.8251 62.0025 87.4928 66.4198C93.2942 70.2634 99.0616 76.4933 103.732 83.9617C108.402 91.4301 111.479 99.3427 112.396 106.242C113.449 114.17 111.539 120.093 107.018 122.92Z" fill="#4D3FD8"/>
<path id="Vector_20" d="M70.6432 64.7529C74.8319 62.1335 80.6315 63.0045 86.9728 67.2058C92.665 70.977 98.3338 77.1052 102.934 84.4613C107.534 91.8174 110.563 99.5965 111.461 106.365C112.463 113.906 110.707 119.502 106.519 122.121C102.33 124.741 96.5304 123.87 90.1891 119.668C84.4968 115.897 78.8281 109.769 74.2279 102.413C69.6277 95.0566 66.5989 87.2775 65.7004 80.5086C64.6989 72.968 66.4545 67.3724 70.6432 64.7529ZM69.6437 63.1546C64.7913 66.1891 62.7274 72.4401 63.8317 80.7567C64.7653 87.7861 67.8895 95.8324 72.6296 103.412C77.3697 110.992 83.2361 117.324 89.148 121.24C96.1421 125.873 102.666 126.754 107.518 123.719C112.37 120.685 114.434 114.434 113.33 106.117C112.397 99.0879 109.272 91.0417 104.532 83.4618C99.7921 75.8819 93.9257 69.5505 88.0138 65.6343C81.0198 61.0008 74.4961 60.1202 69.6437 63.1546Z" fill="#212121"/>
</g>
<path id="Vector_21" d="M105.02 119.724C111.622 115.594 109.615 100.478 100.537 85.9604C91.458 71.4427 78.7455 63.0211 72.1426 67.1502C65.5397 71.2794 67.5468 86.3956 76.6255 100.913C85.7042 115.431 98.4167 123.853 105.02 119.724Z" fill="#212121" stroke="#212121" stroke-width="1.88508" stroke-miterlimit="10" stroke-linecap="round" stroke-linejoin="round"/>
<path id="Vector_22" d="M91.7756 94.3746L94.7451 95.4007C94.9643 95.4765 95.2074 95.4395 95.3941 95.3017L97.9226 93.437C98.3931 93.0899 99.0571 93.4334 99.0462 94.0178L98.9879 97.1591C98.9836 97.3913 99.0939 97.6103 99.2825 97.7457L101.837 99.5743C102.312 99.9146 102.191 100.652 101.632 100.822L98.627 101.738C98.4048 101.806 98.2303 101.978 98.1602 102.199L97.2104 105.194C97.0337 105.751 96.2947 105.864 95.96 105.385L94.1605 102.809C94.0275 102.619 93.8093 102.506 93.5774 102.508L90.4357 102.53C89.8514 102.534 89.5159 101.866 89.868 101.4L91.7614 98.8929C91.9012 98.7077 91.941 98.4655 91.8679 98.2455L90.8759 95.2646C90.6913 94.7091 91.2232 94.1836 91.7756 94.3746Z" fill="#44C1F3" stroke="#212121" stroke-width="1.88508" stroke-miterlimit="10" stroke-linecap="round" stroke-linejoin="round"/>
<g id="Group_5">
<path id="Vector_23" d="M92.5499 51.6108C91.4751 51.0067 90.616 50.4123 89.9336 49.8313C90.4871 50.4 91.3157 51.0069 92.5499 51.6108Z" fill="#725BFF" stroke="#212121" stroke-width="1.88508" stroke-miterlimit="10" stroke-linecap="round" stroke-linejoin="round"/>
<path id="Vector_24" d="M89.9342 49.831C88.8793 48.7476 88.8239 47.8057 88.9031 47.3093C89.4095 46.529 90.143 45.9163 91.1343 45.6155C95.7212 44.2228 108.183 49.4109 111.207 50.7204C111.493 50.8444 111.802 50.6024 111.748 50.2951C111.439 48.55 110.675 44.2296 110.674 44.2282C110.648 44.0827 109.257 43.7152 109.066 43.6473C108.57 43.4703 108.072 43.2957 107.574 43.1244C106.736 42.8366 105.896 42.5574 105.05 42.2954C103.768 41.8983 102.473 41.5443 101.16 41.2606C99.4242 40.8855 97.6807 40.5239 95.9134 40.3296C94.3266 40.1547 92.6762 40.0834 91.2076 40.8184C90.2478 41.2985 89.4675 42.055 88.7991 42.8865C87.4871 44.6558 86.7203 47.0951 89.9342 49.831Z" fill="#725BFF" stroke="#212121" stroke-width="1.88508" stroke-miterlimit="10" stroke-linecap="round" stroke-linejoin="round"/>
<g id="Group_6">
<path id="Vector_25" d="M103.645 64.2452C103.206 64.6461 102.657 65.0232 102.069 65.3825C102.646 65.0365 103.171 64.6781 103.645 64.2452Z" fill="#725BFF" stroke="#212121" stroke-width="1.88508" stroke-miterlimit="10" stroke-linecap="round" stroke-linejoin="round"/>
<path id="Vector_26" d="M102.069 65.3833C101.193 65.9088 100.195 66.4073 99.0476 67.094C99.932 66.5643 101.058 66.0011 102.069 65.3833Z" fill="#725BFF" stroke="#212121" stroke-width="1.88508" stroke-miterlimit="10" stroke-linecap="round" stroke-linejoin="round"/>
<path id="Vector_27" d="M103.674 64.2161C103.697 64.196 103.721 64.178 103.743 64.1575C103.804 64.1026 103.952 63.9506 104.144 63.7502C104.172 63.6592 104.203 63.5696 104.23 63.4788C104.101 63.7317 103.922 63.9838 103.674 64.2161Z" fill="#725BFF" stroke="#212121" stroke-width="1.88508" stroke-miterlimit="10" stroke-linecap="round" stroke-linejoin="round"/>
<g id="Vector_28">
<path d="M103.675 64.2165C103.922 63.9837 104.101 63.7323 104.232 63.4793C104.283 63.3065 104.34 63.1353 104.386 62.9613C105.41 59.1151 100.695 55.5321 100.695 55.5329C99.7267 54.729 97.8967 53.7162 94.1941 52.317C93.5782 52.0841 93.0363 51.8477 92.5522 51.6113C91.3176 51.0076 90.4894 50.4005 89.9359 49.8318C86.722 47.0959 87.4888 44.6565 88.8008 42.8873C88.6863 43.0295 88.5741 43.1736 88.466 43.319C87.3707 44.7949 86.3569 46.4099 86.3379 48.3055C86.3255 49.5266 86.7021 50.719 87.2629 51.7935C87.4748 52.199 87.7399 52.638 88.0382 53.0679C88.9431 54.3718 90.1025 55.257 91.5171 55.9459C93.0686 56.7016 94.7353 57.1884 96.3034 57.9075C101.543 60.3102 102.366 63.4627 102.368 63.4697C102.503 63.9888 101.068 65.4184 100.72 65.763C100.479 66.0022 100.22 66.2203 99.9549 66.43C100.871 66.0171 101.751 65.536 102.167 65.2819C102.717 64.9525 103.219 64.621 103.675 64.2165Z" fill="#725BFF"/>
<path d="M92.5522 51.6113C93.0363 51.8477 93.5782 52.0841 94.1941 52.317C97.8967 53.7162 99.7267 54.729 100.695 55.5329C100.695 55.5321 105.41 59.1151 104.386 62.9613C104.34 63.1353 104.283 63.3065 104.232 63.4793C104.101 63.7323 103.922 63.9837 103.675 64.2165C103.219 64.621 102.717 64.9525 102.167 65.2819C101.751 65.536 100.871 66.0171 99.9549 66.43C100.22 66.2203 100.479 66.0022 100.72 65.763C101.068 65.4184 102.503 63.9888 102.368 63.4697C102.366 63.4627 101.543 60.3102 96.3034 57.9075C94.7353 57.1884 93.0686 56.7016 91.5171 55.9459C90.1025 55.257 88.9431 54.3718 88.0382 53.0679C87.7399 52.638 87.4748 52.199 87.2629 51.7935C86.7021 50.719 86.3255 49.5266 86.3379 48.3055C86.3569 46.4099 87.3707 44.7949 88.466 43.319C88.5741 43.1736 88.6863 43.0295 88.8008 42.8873C87.4888 44.6565 86.722 47.0959 89.9359 49.8318C90.4894 50.4005 91.3176 51.0076 92.5522 51.6113ZM92.5522 51.6113C92.5591 51.6153 92.5657 51.6195 92.573 51.6233" stroke="#212121" stroke-width="1.88508" stroke-miterlimit="10" stroke-linecap="round" stroke-linejoin="round"/>
</g>
<g id="Vector_29">
<path d="M104.144 63.7506C103.952 63.9512 103.804 64.1026 103.744 64.1578C103.722 64.1784 103.697 64.1964 103.675 64.2165C103.665 64.2262 103.656 64.2361 103.646 64.2457C103.172 64.6786 102.647 65.037 102.07 65.3831C101.059 66.0009 99.9324 66.564 99.0481 67.0937C100.195 66.4064 101.194 65.9083 102.07 65.3831C102.658 65.0237 103.207 64.6463 103.646 64.2457C103.657 64.2363 103.665 64.2262 103.675 64.2165C103.219 64.6213 102.717 64.9525 102.166 65.2826C101.751 65.5363 100.871 66.0177 99.9546 66.4306C99.4559 66.8259 98.9264 67.1826 98.3885 67.5234C92.795 71.0686 85.7281 72.0284 79.2993 73.2212L78.2939 77.7074C78.2939 77.7074 84.6027 77.0488 91.5612 74.9495C94.1471 74.1694 96.7717 73.164 98.9458 71.5227C100.205 70.5716 101.048 69.365 101.938 68.0895C102.611 67.1254 103.227 66.1374 103.683 65.0499C103.861 64.6249 104.008 64.1896 104.144 63.7506Z" fill="#725BFF"/>
<path d="M103.675 64.2165C103.697 64.1964 103.722 64.1784 103.744 64.1578C103.804 64.1026 103.952 63.9512 104.144 63.7506C104.008 64.1896 103.861 64.6249 103.683 65.0499C103.227 66.1374 102.611 67.1254 101.938 68.0895C101.048 69.365 100.205 70.5716 98.9458 71.5227C96.7717 73.164 94.1471 74.1694 91.5612 74.9495C84.6027 77.0488 78.2939 77.7074 78.2939 77.7074L79.2993 73.2212C85.7281 72.0284 92.795 71.0686 98.3885 67.5234C98.9264 67.1826 99.4559 66.8259 99.9546 66.4306C100.871 66.0177 101.751 65.5363 102.166 65.2826C102.717 64.9525 103.219 64.6213 103.675 64.2165ZM103.675 64.2165C103.665 64.2262 103.656 64.2361 103.646 64.2457M103.675 64.2165C103.665 64.2262 103.657 64.2363 103.646 64.2457M103.646 64.2457C103.172 64.6786 102.647 65.037 102.07 65.3831M103.646 64.2457C103.207 64.6463 102.658 65.0237 102.07 65.3831M102.07 65.3831C101.059 66.0009 99.9324 66.564 99.0481 67.0937C100.195 66.4064 101.194 65.9083 102.07 65.3831Z" stroke="#212121" stroke-width="1.88508" stroke-miterlimit="10" stroke-linecap="round" stroke-linejoin="round"/>
</g>
</g>
</g>
<g id="Group_7">
<path id="Vector_30" d="M123.913 98.159C124.134 97.0359 123.765 96.3706 123.426 95.9518C123.053 95.4903 122.27 94.968 121.709 94.7756C121.522 94.7117 121.332 94.6557 121.139 94.6113C119.459 94.2225 118.074 95.107 116.81 96.1049C116.161 96.6168 115.539 97.1635 114.956 97.7489C112.229 100.487 109.833 103.543 107.572 106.672C106.874 107.637 106.185 108.609 105.527 109.601C105.527 109.601 103.49 104.817 103.479 104.791C103.417 104.646 103.669 104.403 103.744 104.309C104.709 103.101 105.658 101.877 106.645 100.687C108.785 98.1079 111.102 95.5747 113.714 93.464C114.948 92.451 116.292 91.4898 117.923 91.3037C118.99 91.182 120.056 91.3895 121.071 91.7207C123.136 92.4876 125.111 94.112 123.913 98.159Z" fill="#725BFF" stroke="#212121" stroke-width="1.88508" stroke-miterlimit="10" stroke-linecap="round" stroke-linejoin="round"/>
<path id="Vector_31" d="M120.298 117.722C120.884 117.818 121.551 117.834 122.24 117.814C121.567 117.839 120.931 117.826 120.298 117.722Z" fill="#725BFF" stroke="#212121" stroke-width="1.88508" stroke-miterlimit="10" stroke-linecap="round" stroke-linejoin="round"/>
<path id="Vector_32" d="M122.24 117.814C123.261 117.776 124.37 117.648 125.706 117.597C124.676 117.636 123.424 117.779 122.24 117.814Z" fill="#725BFF" stroke="#212121" stroke-width="1.88508" stroke-miterlimit="10" stroke-linecap="round" stroke-linejoin="round"/>
<path id="Vector_33" d="M120.258 117.713C120.228 117.709 120.198 117.707 120.168 117.702C120.088 117.689 119.88 117.643 119.61 117.58C119.537 117.519 119.462 117.461 119.389 117.399C119.637 117.54 119.924 117.653 120.258 117.713Z" fill="#725BFF" stroke="#212121" stroke-width="1.88508" stroke-miterlimit="10" stroke-linecap="round" stroke-linejoin="round"/>
<g id="Vector_34">
<path d="M120.258 117.713C119.924 117.653 119.636 117.54 119.389 117.399C119.252 117.283 119.11 117.171 118.976 117.05C116.702 115.002 117.147 111.352 118.031 108.749C118.799 106.491 120.31 104.47 121.702 102.567C122.091 102.035 122.416 101.542 122.692 101.079C123.397 99.8989 123.759 98.938 123.912 98.1591C125.111 94.112 123.136 92.4874 121.071 91.7218C121.244 91.7785 121.417 91.8378 121.587 91.9009C123.311 92.5389 125.042 93.3384 126.093 94.9161C126.77 95.9323 127.106 97.1368 127.223 98.3433C127.267 98.7987 127.285 99.3113 127.269 99.8344C127.223 101.421 126.736 102.796 125.927 104.145C125.039 105.626 123.909 106.944 122.988 108.402C119.911 113.277 120.943 116.367 120.945 116.374C121.116 116.883 123.099 117.296 123.578 117.395C123.911 117.464 124.247 117.505 124.583 117.536C123.59 117.691 122.59 117.768 122.104 117.782C121.463 117.806 120.861 117.803 120.258 117.713Z" fill="#725BFF"/>
<path d="M122.692 101.079C122.416 101.542 122.091 102.035 121.702 102.567C120.31 104.47 118.799 106.491 118.031 108.749C117.147 111.352 116.702 115.002 118.976 117.05C119.11 117.171 119.252 117.283 119.389 117.399C119.636 117.54 119.924 117.653 120.258 117.713C120.861 117.803 121.463 117.806 122.104 117.782C122.59 117.768 123.59 117.691 124.583 117.536C124.247 117.505 123.911 117.464 123.578 117.395C123.099 117.296 121.116 116.883 120.945 116.374C120.943 116.367 119.911 113.277 122.988 108.402C123.909 106.944 125.039 105.626 125.927 104.145C126.736 102.796 127.223 101.421 127.269 99.8344C127.285 99.3113 127.267 98.7987 127.223 98.3433C127.106 97.1368 126.77 95.9323 126.093 94.9161C125.042 93.3384 123.311 92.5389 121.587 91.9009C121.417 91.8378 121.244 91.7785 121.071 91.7218C123.136 92.4874 125.111 94.112 123.912 98.1591C123.759 98.938 123.397 99.8989 122.692 101.079ZM122.692 101.079C122.688 101.086 122.685 101.093 122.682 101.1" stroke="#212121" stroke-width="1.88508" stroke-miterlimit="10" stroke-linecap="round" stroke-linejoin="round"/>
</g>
<g id="Vector_35">
<path d="M119.61 117.58C119.88 117.643 120.088 117.689 120.168 117.702C120.198 117.707 120.228 117.709 120.258 117.714C120.272 117.716 120.284 117.72 120.298 117.722C120.931 117.826 121.567 117.84 122.24 117.815C123.424 117.78 124.675 117.637 125.705 117.598C124.369 117.648 123.26 117.777 122.24 117.815C121.551 117.835 120.884 117.818 120.298 117.722C120.284 117.72 120.272 117.716 120.258 117.714C120.861 117.804 121.463 117.807 122.104 117.783C122.585 117.769 123.567 117.693 124.548 117.542C124.572 117.539 124.596 117.538 124.619 117.54C125.241 117.596 125.867 117.605 126.492 117.597C133.05 117.513 139.433 114.516 145.419 112.018C145.528 111.973 145.653 111.989 145.747 112.06L150.376 115.542C150.651 115.749 150.61 116.011 150.286 116.124C149.173 116.513 148.058 116.894 146.941 117.271C144.296 118.161 141.65 119.057 138.995 119.896C136.307 120.746 133.517 121.239 130.699 121.318C129.602 121.349 128.491 121.335 127.411 121.158C126.166 120.953 124.991 120.479 123.828 120.01C122.737 119.57 121.682 119.078 120.705 118.416C120.325 118.158 119.964 117.873 119.61 117.58Z" fill="#725BFF"/>
<path d="M120.258 117.714C120.228 117.709 120.198 117.707 120.168 117.702C120.088 117.689 119.88 117.643 119.61 117.58C119.964 117.873 120.325 118.158 120.705 118.416C121.682 119.078 122.737 119.57 123.828 120.01C124.991 120.479 126.166 120.953 127.411 121.158C128.491 121.335 129.602 121.349 130.699 121.318C133.517 121.239 136.307 120.746 138.995 119.896C141.65 119.057 144.296 118.161 146.941 117.271C148.058 116.894 149.173 116.513 150.286 116.124C150.61 116.011 150.651 115.749 150.376 115.542L145.747 112.06C145.653 111.989 145.528 111.973 145.419 112.018C139.433 114.516 133.05 117.513 126.492 117.597C125.867 117.605 125.241 117.596 124.619 117.54C124.596 117.538 124.572 117.539 124.548 117.542C123.567 117.693 122.585 117.769 122.104 117.783C121.463 117.807 120.861 117.804 120.258 117.714ZM120.258 117.714C120.272 117.716 120.284 117.72 120.298 117.722M120.298 117.722C120.931 117.826 121.567 117.84 122.24 117.815M120.298 117.722C120.884 117.818 121.551 117.835 122.24 117.815M122.24 117.815C123.424 117.78 124.675 117.637 125.705 117.598C124.369 117.648 123.26 117.777 122.24 117.815Z" stroke="#212121" stroke-width="1.88508" stroke-miterlimit="10" stroke-linecap="round" stroke-linejoin="round"/>
</g>
</g>
</g>
</g>
<defs>
<filter id="filter0_d_1345_32028" x="15.0128" y="5.38718" width="160.655" height="140.656" filterUnits="userSpaceOnUse" color-interpolation-filters="sRGB">
<feFlood flood-opacity="0" result="BackgroundImageFix"/>
<feColorMatrix in="SourceAlpha" type="matrix" values="0 0 0 0 0 0 0 0 0 0 0 0 0 0 0 0 0 0 127 0" result="hardAlpha"/>
<feOffset dy="0.318"/>
<feGaussianBlur stdDeviation="0.795"/>
<feComposite in2="hardAlpha" operator="out"/>
<feColorMatrix type="matrix" values="0 0 0 0 0 0 0 0 0 0 0 0 0 0 0 0 0 0 0.16 0"/>
<feBlend mode="normal" in2="BackgroundImageFix" result="effect1_dropShadow_1345_32028"/>
<feBlend mode="normal" in="SourceGraphic" in2="effect1_dropShadow_1345_32028" result="shape"/>
</filter>
<clipPath id="clip0_1345_32028">
<rect width="164.944" height="117.817" fill="white" transform="translate(-12.0962 87.7263) rotate(-32.02)"/>
</clipPath>
</defs>
</svg>
