<svg width="205" height="205" viewBox="0 0 205 205" fill="none" xmlns="http://www.w3.org/2000/svg">
<g id="img_profile" clip-path="url(#clip0_1333_31735)">
<path id="Vector" d="M102.05 204.847C158.411 204.847 204.1 159.158 204.1 102.797C204.1 46.4364 158.411 0.74707 102.05 0.74707C45.6893 0.74707 0 46.4364 0 102.797C0 159.158 45.6893 204.847 102.05 204.847Z" fill="#D4CFFB"/>
<g id="Clip path group">
<mask id="mask0_1333_31735" style="mask-type:luminance" maskUnits="userSpaceOnUse" x="0" y="0" width="205" height="205">
<g id="clippath">
<path id="Vector_2" d="M102.05 204.847C158.411 204.847 204.1 159.158 204.1 102.797C204.1 46.4364 158.411 0.74707 102.05 0.74707C45.6893 0.74707 0 46.4364 0 102.797C0 159.158 45.6893 204.847 102.05 204.847Z" fill="white"/>
</g>
</mask>
<g mask="url(#mask0_1333_31735)">
<g id="Group">
<path id="Vector_3" d="M45.3701 204.837H158.79C155.48 179.697 148.1 156.857 132.01 143.747C132.14 143.667 132.27 143.597 132.4 143.517C140.23 138.467 145.61 130.917 148.36 121.107C151.01 112.087 150.32 102.537 146.41 94.2071C144.28 89.6671 141.33 85.7071 137.78 82.5371C138.97 66.3771 136.84 55.0771 131.44 48.9471C128.54 45.6571 124.73 43.8671 120.12 43.6371C114.69 43.3671 109.99 45.1371 106.54 48.7471C103.87 51.5471 102.01 55.3071 101 59.8971C99.7801 55.5071 97.8101 51.3671 94.6801 48.2871C91.0701 44.7371 86.3701 42.9471 80.6801 43.0071C74.5201 43.0971 69.3101 45.3471 65.2001 49.6771C57.0101 58.3171 53.3301 75.2071 54.2801 99.8771C54.2801 99.8871 54.2801 99.8971 54.2801 99.9171C55.2301 116.787 59.4201 129.057 67.1201 137.427C69.1301 139.617 71.3601 141.517 73.8301 143.157C55.9401 157.917 47.5601 184.817 45.3601 204.837H45.3701Z" fill="#F5F5F5"/>
</g>
</g>
</g>
<path id="Vector_4" d="M128.49 108.297C130.788 108.297 132.65 106.435 132.65 104.137C132.65 101.84 130.788 99.9771 128.49 99.9771C126.193 99.9771 124.33 101.84 124.33 104.137C124.33 106.435 126.193 108.297 128.49 108.297Z" fill="#B8B9BE"/>
<path id="Vector_5" d="M106.21 108.297C108.508 108.297 110.37 106.435 110.37 104.137C110.37 101.84 108.508 99.9771 106.21 99.9771C103.913 99.9771 102.05 101.84 102.05 104.137C102.05 106.435 103.913 108.297 106.21 108.297Z" fill="#B8B9BE"/>
</g>
<defs>
<clipPath id="clip0_1333_31735">
<rect width="204.09" height="204.09" fill="white" transform="translate(0 0.74707)"/>
</clipPath>
</defs>
</svg>
