<svg width="180" height="181" viewBox="0 0 180 181" fill="none" xmlns="http://www.w3.org/2000/svg">
<g id="ic_empty_feed">
<g id="Vector" filter="url(#filter0_d_1355_30570)">
<path d="M85.2129 174.438C81.1936 174.438 76.8615 173.965 73.5384 173.55L73.451 173.539C68.4255 172.767 65.5674 169.497 65.8014 164.787C65.807 164.692 65.8155 164.593 65.8267 164.494L67.8477 149.085C67.3544 149.237 66.8386 149.336 66.3087 149.381C65.015 150.004 63.6959 150.32 62.3796 150.32C60.5222 150.32 58.6478 149.688 56.8101 148.44C54.637 147.019 53.1939 144.708 52.6358 141.751C51.9058 137.783 53.9775 133.868 57.791 131.993C57.8868 131.945 57.9206 131.914 57.9235 131.914L69.8404 115.519C69.7192 115.431 69.6008 115.344 69.4796 115.257C64.347 111.429 60.7787 105.234 58.5717 96.3215L58.5576 96.2679C55.5671 83.2095 55.9223 74.0463 59.6484 68.2598C61.6806 65.103 64.75 63.0257 68.5185 62.2562C69.4993 62.0617 70.4548 61.9659 71.3737 61.9659C73.8428 61.9659 76.1117 62.648 78.1129 63.9924C78.5442 64.2828 78.9613 64.6041 79.3644 64.9564C79.5447 64.6069 79.742 64.2687 79.9534 63.9445C81.7658 61.1541 84.6971 59.3502 88.209 58.8626C88.7699 58.7865 89.3252 58.7471 89.8664 58.7471C92.3129 58.7471 94.5339 59.5081 96.4646 61.0132C100.188 63.9107 102.547 69.3421 103.655 77.5864C105.56 78.9252 107.232 80.5826 108.638 82.5302C111.637 86.682 113.066 91.7892 112.694 96.9782L116.434 94.729C117.054 94.3541 117.767 94.1568 118.497 94.1568C119.227 94.1568 119.873 94.3372 120.473 94.6783C121.722 95.3829 122.5 96.7189 122.5 98.1592V102.246C123.159 102.548 123.779 102.948 124.349 103.447C126.375 105.22 127.528 108.041 127.508 111.192C127.508 115.713 125.716 119.09 122.5 120.784V124.352C122.5 125.793 121.722 127.129 120.468 127.836L107.451 135.209C106.643 138.862 105.157 141.991 103.018 144.55C103.725 147.239 104.281 150.486 104.608 153.874C108.663 154.818 114.055 156.963 113.951 163.511V163.615C113.83 166.036 112.801 168.088 110.977 169.545C108.993 171.129 106.104 171.933 102.386 171.935C100.828 171.935 99.1113 171.797 97.2679 171.524C94.7397 173.522 90.8895 174.455 85.2129 174.455H85.2101L85.2129 174.438Z" fill="white"/>
</g>
<path id="Vector_2" d="M75.3227 114.096L61.6442 133.505C58.696 135.433 56.117 137.581 56.4383 141.473C57.1006 145.349 59.5923 146.769 63.5665 146.205L68.1495 144.331L69.2572 139.757L72.5436 143.646L69.7391 166.355L72.2392 169.684L89.6721 170.479C92.5329 169.721 94.8526 168.548 96.1914 166.62L103.198 168.128C107.347 168.075 109.808 166.759 110.011 163.754C109.771 159.264 106.096 157.559 100.884 157.099L98.638 143.435C104.224 137.378 105.38 128.296 103.024 116.816L95.9378 109.992L75.3227 114.096Z" fill="#D4CFFB"/>
<path id="Vector_3" d="M62.3796 147.189C61.1281 147.189 59.871 146.738 58.5435 145.833C57.0722 144.883 56.1139 143.308 55.708 141.168C55.2373 138.606 56.6269 136.05 59.1692 134.801C59.7047 134.539 60.1303 134.192 60.4348 133.772L75.3337 113.276C75.6015 112.909 76.1117 112.827 76.4809 113.095C76.8473 113.363 76.929 113.876 76.6613 114.242L61.7623 134.739C61.2972 135.379 60.6687 135.895 59.8908 136.275C58.3321 137.042 56.9313 138.758 57.3202 140.867C57.6415 142.569 58.3405 143.747 59.4511 144.466C61.2465 145.692 62.7009 145.858 64.3328 145.035C64.8205 144.79 65.3052 144.655 65.7759 144.635C66.4524 144.607 67.0471 144.342 67.453 143.885C67.8307 143.463 68.0054 142.927 67.9603 142.338C67.904 141.594 68.0815 140.838 68.4705 140.154C68.4761 140.142 68.4818 140.134 68.4902 140.123L80.9173 120.361C81.1597 119.978 81.6643 119.863 82.0504 120.105C82.4337 120.347 82.5493 120.852 82.3069 121.238L69.8911 140.982C69.6712 141.377 69.5698 141.805 69.6008 142.217C69.6769 143.245 69.3527 144.226 68.6819 144.979C67.9773 145.771 66.9682 146.233 65.8464 146.278C65.6125 146.287 65.3532 146.363 65.0769 146.504C64.1694 146.963 63.2787 147.192 62.3824 147.192L62.3796 147.189Z" fill="#4A4A4A"/>
<path id="Vector_4" d="M95.3573 146.557C95.0614 146.557 94.7739 146.397 94.6273 146.115C94.4188 145.712 94.5738 145.218 94.9768 145.007C104.622 139.993 104.926 126.63 101.127 116.339C100.969 115.914 101.189 115.443 101.612 115.285C102.037 115.13 102.508 115.347 102.666 115.77C106.705 126.714 106.26 140.988 95.7322 146.461C95.611 146.523 95.4814 146.554 95.3545 146.554L95.3573 146.557Z" fill="#4A4A4A"/>
<path id="Vector_5" d="M85.2181 171.313C81.6779 171.313 77.7347 170.924 73.9269 170.447C69.5947 169.782 68.8196 167.088 68.9267 164.943C68.9267 164.92 68.9295 164.9 68.9323 164.878L71.7284 143.541C70.8151 142.715 69.5412 141.312 69.1353 139.618C69.0282 139.178 69.3016 138.736 69.7413 138.629C70.181 138.524 70.6235 138.795 70.7306 139.235C70.9871 140.303 71.8608 141.523 73.1264 142.583C73.3406 142.763 73.4505 143.04 73.4139 143.319L70.5643 165.058C70.4656 167.265 71.5733 168.427 74.1523 168.824C81.2833 169.712 91.1765 170.552 94.5081 167.612C95.2916 166.921 95.6721 166.048 95.6721 164.94C95.6721 164.021 95.3847 163.294 94.7956 162.713C93.53 161.467 90.889 160.87 86.9289 160.929C86.6865 160.929 86.4498 160.825 86.2891 160.639C86.1313 160.45 86.0636 160.202 86.1087 159.96C87.0276 154.962 87.0417 151.013 86.1595 145.878C86.0834 145.433 86.3821 145.007 86.8303 144.931C87.2756 144.858 87.7012 145.154 87.7773 145.602C88.637 150.607 88.6765 154.531 87.8929 159.289C91.8163 159.339 94.4573 160.081 95.9456 161.546C96.8531 162.44 97.3126 163.581 97.3097 164.943C97.3097 166.524 96.7319 167.837 95.5904 168.844C93.4934 170.695 89.6742 171.316 85.2152 171.316L85.2181 171.313Z" fill="#4A4A4A"/>
<path id="Vector_6" d="M102.391 168.793C100.424 168.793 98.389 168.545 96.6105 168.232C96.1652 168.154 95.8664 167.728 95.9425 167.283C96.0214 166.837 96.447 166.539 96.8924 166.615C102.234 167.55 106.18 167.26 108.003 165.803C108.747 165.208 109.133 164.419 109.184 163.393C109.232 160.377 107.262 159.1 100.754 157.964C100.376 157.9 100.097 157.581 100.075 157.201C99.8237 152.479 99.0542 147.691 98.0141 144.393C97.8789 143.962 98.1184 143.499 98.5497 143.364C98.9809 143.229 99.4432 143.468 99.5785 143.9C100.607 147.169 101.382 151.823 101.675 156.462C106.786 157.392 110.898 158.675 110.822 163.447C110.746 164.977 110.142 166.192 109.023 167.085C107.425 168.362 104.965 168.791 102.386 168.791L102.391 168.793Z" fill="#4A4A4A"/>
<path id="Vector_7" d="M99.9766 79.932C98.5165 68.0235 95.2836 63.1107 89.2011 63.2798C83.0285 64.2325 81.2922 69.3511 83.0482 78.7003C81.2443 69.0946 76.2611 65.7292 69.0371 66.7551C61.1704 69.2129 58.6422 77.9336 62.2274 93.8219C64.5696 107.168 71.1172 114.161 81.3289 115.632C92.217 115.257 103.5 113.31 108.052 100.747C109.915 90.7948 107.248 83.8385 99.9766 79.9292V79.932Z" fill="#D4CFFB"/>
<path id="Vector_8" d="M83.5944 116.495C78.7521 116.495 74.7102 115.252 71.3477 112.746C66.8182 109.367 63.6304 103.749 61.6067 95.5671C58.8501 83.5374 59.0784 74.921 62.2803 69.9491C63.87 67.48 66.1784 65.9213 69.1464 65.3153C71.8832 64.7742 74.31 65.1998 76.3704 66.5809C80.0035 69.0218 81.7539 74.0078 82.5966 77.982C86.6525 76.7531 91.2327 76.5445 95.9172 77.4888C99.9421 78.3794 103.556 80.8175 106.106 84.352C108.778 88.05 109.993 92.6442 109.531 97.2836C108.643 107.45 101.602 114.071 89.7107 115.914C87.5432 116.301 85.5054 116.492 83.5944 116.492V116.495ZM71.359 66.7331C70.753 66.7331 70.1216 66.7979 69.4705 66.9276C66.9563 67.4405 65.0003 68.7568 63.6586 70.8397C60.7047 75.4256 60.5525 83.6192 63.202 95.1894C65.1299 102.974 68.1148 108.29 72.3285 111.433C76.6325 114.643 82.2302 115.582 89.4401 114.299C100.689 112.555 107.065 106.619 107.893 97.1342C108.316 92.8838 107.208 88.6898 104.77 85.3159C102.453 82.1084 99.1867 79.9015 95.5705 79.0982C86.6413 77.2971 78.1489 79.9381 73.4193 85.9896C73.1403 86.3475 72.6245 86.4095 72.2665 86.1305C71.9086 85.8515 71.8466 85.3357 72.1256 84.9777C74.403 82.0633 77.4724 79.8789 81.0239 78.5204C80.2628 74.8196 78.6873 70.1238 75.4487 67.9479C74.2452 67.139 72.8754 66.7331 71.3533 66.7331H71.359Z" fill="#4A4A4A"/>
<path id="Vector_9" d="M99.9169 80.3298C99.5054 80.3298 99.1503 80.0197 99.1024 79.5997C98.2596 72.0741 96.3345 66.9472 93.5385 64.7684C92.194 63.7199 90.6664 63.3309 88.8625 63.579C86.6837 63.8806 85.0292 64.8755 83.9525 66.5328C82.2529 69.1513 82.1063 73.3256 83.541 78.2891C83.6678 78.7232 83.417 79.1798 82.9801 79.3066C82.5432 79.4306 82.0894 79.1826 81.9626 78.7457C80.3701 73.2382 80.5815 68.706 82.5742 65.6393C83.9046 63.5931 85.9988 62.3191 88.637 61.9526C90.8693 61.6454 92.8564 62.1584 94.5447 63.4719C97.7438 65.9607 99.8239 71.3244 100.729 79.4137C100.779 79.8647 100.455 80.2706 100.004 80.3213C99.9733 80.3241 99.9423 80.3269 99.9113 80.3269L99.9169 80.3298Z" fill="#4A4A4A"/>
<path id="Vector_10" d="M98.8577 93.7227C99.9349 93.7227 100.808 92.8494 100.808 91.7722C100.808 90.695 99.9349 89.8218 98.8577 89.8218C97.7805 89.8218 96.9072 90.695 96.9072 91.7722C96.9072 92.8494 97.7805 93.7227 98.8577 93.7227Z" fill="#4A4A4A"/>
<path id="Vector_11" d="M90.4241 95.3181C91.5013 95.3181 92.3745 94.4449 92.3745 93.3677C92.3745 92.2905 91.5013 91.4172 90.4241 91.4172C89.3469 91.4172 88.4736 92.2905 88.4736 93.3677C88.4736 94.4449 89.3469 95.3181 90.4241 95.3181Z" fill="#4A4A4A"/>
<path id="Vector_12" d="M118.5 98.1509L99.6104 109.507V135.043L118.5 124.341V98.1509Z" fill="white"/>
<path id="Vector_13" d="M99.6105 135.92C99.4583 135.92 99.3061 135.881 99.1679 135.802C98.8974 135.644 98.7339 135.357 98.7339 135.044V109.508C98.7339 109.2 98.8945 108.916 99.1595 108.755L118.05 97.4018C118.32 97.2384 118.658 97.2327 118.932 97.3906C119.208 97.5456 119.377 97.8387 119.377 98.1544V124.345C119.377 124.66 119.208 124.951 118.932 125.108L100.042 135.808C99.9064 135.884 99.7598 135.92 99.6105 135.92ZM100.487 110.004V133.542L117.624 123.834V99.7046L100.487 110.004Z" fill="#4A4A4A"/>
<path id="Vector_14" d="M118.847 105.609C121.623 105.217 123.528 107.821 123.509 111.156C123.509 114.174 122.516 117.159 118.847 117.838C113.232 118.261 113.232 106.271 118.847 105.609Z" fill="#D4CFFB"/>
<path id="Vector_15" d="M118.557 118.727C115.986 118.727 114.137 116.574 113.807 113.135C113.441 109.341 115.183 105.167 118.734 104.738C120.062 104.552 121.293 104.916 122.294 105.792C123.636 106.965 124.399 108.924 124.385 111.162C124.385 115.44 122.525 118.048 119.008 118.702C118.977 118.707 118.946 118.713 118.915 118.713C118.793 118.721 118.675 118.727 118.559 118.727H118.557ZM119.396 106.444C119.256 106.444 119.115 106.455 118.968 106.475C118.962 106.475 118.954 106.475 118.948 106.475C116.491 106.765 115.27 110.068 115.549 112.963C115.744 114.984 116.674 117.081 118.734 116.965C121.355 116.458 122.629 114.555 122.629 111.153C122.641 109.445 122.083 107.935 121.138 107.109C120.631 106.666 120.048 106.441 119.396 106.441V106.444Z" fill="#4A4A4A"/>
</g>
<defs>
<filter id="filter0_d_1355_30570" x="48.9308" y="55.7805" width="82.1376" height="122.828" filterUnits="userSpaceOnUse" color-interpolation-filters="sRGB">
<feFlood flood-opacity="0" result="BackgroundImageFix"/>
<feColorMatrix in="SourceAlpha" type="matrix" values="0 0 0 0 0 0 0 0 0 0 0 0 0 0 0 0 0 0 127 0" result="hardAlpha"/>
<feMorphology radius="0.593317" operator="dilate" in="SourceAlpha" result="effect1_dropShadow_1355_30570"/>
<feOffset dy="0.593317"/>
<feGaussianBlur stdDeviation="1.48329"/>
<feComposite in2="hardAlpha" operator="out"/>
<feColorMatrix type="matrix" values="0 0 0 0 0 0 0 0 0 0 0 0 0 0 0 0 0 0 0.16 0"/>
<feBlend mode="normal" in2="BackgroundImageFix" result="effect1_dropShadow_1355_30570"/>
<feBlend mode="normal" in="SourceGraphic" in2="effect1_dropShadow_1355_30570" result="shape"/>
</filter>
</defs>
</svg>
